<svg viewBox="0 0 151 81" fill="none" xmlns="http://www.w3.org/2000/svg">
<path d="M1.10949 79.4857C0.738162 79.1239 0.44786 78.689 0.257374 78.2093C0.0668891 77.7295 -0.0195341 77.2156 0.00369833 76.7008V69.7673C-0.0195341 69.2525 0.0668891 68.7385 0.257374 68.2588C0.44786 67.7791 0.738162 67.3442 1.10949 66.9823C1.50375 66.6234 1.96639 66.3456 2.47043 66.1652C2.97446 65.9848 3.5098 65.9053 4.04523 65.9315C4.77606 65.9162 5.49921 66.0812 6.14918 66.4118C6.73833 66.7155 7.22812 67.1783 7.56159 67.7463C7.90451 68.3431 8.07911 69.0199 8.06719 69.7061V70.2959C8.07165 70.324 8.06933 70.3528 8.06041 70.3798C8.0515 70.4069 8.03625 70.4314 8.01589 70.4515C7.99554 70.4717 7.97067 70.4867 7.94331 70.4955C7.91594 70.5043 7.88686 70.5066 7.85843 70.5022H7.1669C7.13871 70.5061 7.11001 70.5034 7.08307 70.4943C7.05614 70.4852 7.03172 70.4701 7.01176 70.45C6.9918 70.43 6.97685 70.4056 6.96811 70.3789C6.95936 70.3521 6.95707 70.3237 6.9614 70.2959V69.7061C6.97904 69.3282 6.91646 68.9509 6.77771 68.5984C6.63895 68.2459 6.42707 67.926 6.1557 67.6592C5.87076 67.3975 5.53601 67.1943 5.1709 67.0615C4.80579 66.9286 4.41761 66.8689 4.02892 66.8856C3.63936 66.8683 3.25026 66.9288 2.88486 67.0634C2.51946 67.1979 2.18523 67.4039 1.90214 67.6689C1.63354 67.9382 1.42372 68.259 1.2857 68.6117C1.14767 68.9643 1.08437 69.3412 1.09971 69.719V76.7362C1.08407 77.1149 1.14818 77.4926 1.288 77.8455C1.42781 78.1984 1.64028 78.5188 1.91193 78.7863C2.19592 79.0539 2.53132 79.2625 2.89829 79.3998C3.26527 79.5371 3.65637 79.6003 4.04849 79.5857C4.43528 79.6036 4.8218 79.545 5.18535 79.4132C5.54889 79.2815 5.88213 79.0793 6.16549 78.8185C6.43174 78.5566 6.63999 78.2428 6.777 77.8971C6.91402 77.5514 6.97681 77.1813 6.9614 76.8104V74.3219C6.96303 74.3105 6.96196 74.2989 6.95828 74.288C6.95459 74.2771 6.94839 74.2672 6.94017 74.2591C6.93194 74.251 6.92191 74.2448 6.91088 74.2412C6.89984 74.2376 6.88811 74.2365 6.87659 74.2381H4.29966C4.27166 74.2425 4.24299 74.2403 4.21601 74.2317C4.18903 74.2231 4.16451 74.2082 4.14445 74.1884C4.1244 74.1686 4.10939 74.1444 4.10064 74.1177C4.0919 74.091 4.08968 74.0627 4.09416 74.035V73.5064C4.08983 73.4786 4.09213 73.4502 4.10087 73.4235C4.10961 73.3967 4.12456 73.3723 4.14452 73.3523C4.16448 73.3323 4.1889 73.3171 4.21584 73.3081C4.24277 73.299 4.27148 73.2963 4.29966 73.3001H7.84538C7.87368 73.2964 7.90247 73.2992 7.92951 73.3082C7.95655 73.3173 7.98111 73.3324 8.0013 73.3523C8.02149 73.3723 8.03676 73.3966 8.04592 73.4233C8.05508 73.45 8.0579 73.4784 8.05414 73.5064V76.6685C8.07947 77.1891 7.99449 77.7092 7.80463 78.1954C7.61477 78.6817 7.32423 79.1233 6.95161 79.4922C6.55714 79.8508 6.09447 80.1284 5.59049 80.3088C5.08651 80.4892 4.55126 80.5688 4.01587 80.543C3.48486 80.5644 2.95478 80.4821 2.45604 80.3006C1.9573 80.1192 1.4997 79.8423 1.10949 79.4857Z" fill="#FFE1E1"/>
<path d="M18.5996 80.1685V66.3081C18.5957 66.2802 18.5984 66.2519 18.6076 66.2253C18.6168 66.1986 18.6321 66.1745 18.6524 66.1548C18.6727 66.1351 18.6973 66.1203 18.7244 66.1116C18.7515 66.103 18.7802 66.1007 18.8083 66.105H19.4901C19.518 66.1013 19.5463 66.104 19.573 66.1129C19.5996 66.1217 19.6238 66.1366 19.6437 66.1563C19.6636 66.1759 19.6787 66.1998 19.6876 66.2262C19.6966 66.2525 19.6994 66.2805 19.6956 66.3081V79.3401C19.6941 79.3512 19.6951 79.3625 19.6986 79.3731C19.7021 79.3837 19.708 79.3935 19.7158 79.4015C19.7237 79.4096 19.7333 79.4158 19.7439 79.4197C19.7545 79.4235 19.7659 79.425 19.7771 79.4239H25.8867C25.9149 79.4196 25.9436 79.4219 25.9707 79.4306C25.9978 79.4392 26.0224 79.454 26.0427 79.4737C26.063 79.4934 26.0783 79.5175 26.0875 79.5442C26.0966 79.5708 26.0994 79.5991 26.0955 79.627V80.1782C26.0994 80.206 26.0966 80.2344 26.0875 80.261C26.0783 80.2876 26.063 80.3118 26.0427 80.3315C26.0224 80.3512 25.9978 80.366 25.9707 80.3746C25.9436 80.3833 25.9149 80.3855 25.8867 80.3813H18.8083C18.7793 80.386 18.7495 80.3836 18.7215 80.3745C18.6935 80.3654 18.6682 80.3497 18.6477 80.3288C18.6272 80.3079 18.6121 80.2824 18.6037 80.2545C18.5954 80.2266 18.5939 80.1971 18.5996 80.1685Z" fill="#FFE1E1"/>
<path d="M43.3287 80.1884L42.585 77.4969C42.5777 77.4768 42.5637 77.4598 42.5453 77.4487C42.5269 77.4375 42.5052 77.4329 42.4839 77.4357H37.2811C37.2256 77.4357 37.1897 77.4582 37.18 77.4969L36.4558 80.1884C36.4485 80.242 36.4208 80.2908 36.3784 80.3249C36.336 80.359 36.282 80.3759 36.2275 80.3721H35.5294C35.5003 80.3746 35.471 80.3703 35.4439 80.3597C35.4167 80.349 35.3924 80.3324 35.3728 80.3109C35.3546 80.2886 35.3422 80.2623 35.3365 80.2343C35.3308 80.2062 35.3321 80.1772 35.3402 80.1497L39.2219 66.2571C39.2329 66.207 39.2624 66.1627 39.3046 66.1329C39.3468 66.1031 39.3987 66.0899 39.4503 66.0959H40.3147C40.3662 66.0899 40.4181 66.1031 40.4603 66.1329C40.5025 66.1627 40.532 66.207 40.543 66.2571L44.4214 80.1497L44.4443 80.2077C44.4443 80.3173 44.3758 80.3721 44.2388 80.3721H43.557C43.5025 80.3759 43.4485 80.359 43.4061 80.3249C43.3637 80.2908 43.336 80.242 43.3287 80.1884ZM37.4768 76.5106C37.4962 76.5287 37.5218 76.539 37.5485 76.5396H42.2164C42.2292 76.5396 42.2419 76.537 42.2536 76.532C42.2654 76.527 42.276 76.5197 42.2849 76.5106C42.3077 76.488 42.311 76.4719 42.2849 76.4558L39.9102 67.6882C39.9069 67.6768 39.9001 67.6667 39.8908 67.6592C39.8814 67.6517 39.87 67.6472 39.858 67.6463C39.8384 67.6463 39.8221 67.6463 39.8058 67.6882L37.454 76.4558C37.454 76.4558 37.4572 76.488 37.4768 76.5106Z" fill="#FFE1E1"/>
<path d="M54.0638 80.1689V66.3085C54.0601 66.2809 54.0628 66.2529 54.0718 66.2266C54.0808 66.2002 54.0958 66.1763 54.1157 66.1567C54.1356 66.137 54.1598 66.1221 54.1864 66.1133C54.2131 66.1044 54.2415 66.1017 54.2693 66.1054H58.1837C58.6922 66.079 59.2008 66.1558 59.6782 66.331C60.1556 66.5061 60.5917 66.776 60.9596 67.124C61.3093 67.4953 61.5799 67.9324 61.7553 68.4092C61.9307 68.8859 62.0073 69.3927 61.9806 69.8993V76.5878C62.0073 77.0944 61.9307 77.6011 61.7553 78.0779C61.5799 78.5547 61.3093 78.9917 60.9596 79.3631C60.5917 79.711 60.1556 79.9809 59.6782 80.1561C59.2008 80.3313 58.6922 80.408 58.1837 80.3817H54.2693C54.2405 80.3858 54.2111 80.383 54.1836 80.3736C54.156 80.3642 54.1312 80.3485 54.1111 80.3277C54.091 80.3068 54.0762 80.2816 54.068 80.254C54.0598 80.2263 54.0583 80.1972 54.0638 80.1689ZM55.2381 79.4147H58.1934C58.5551 79.4308 58.9159 79.3691 59.251 79.2339C59.5861 79.0987 59.8875 78.8931 60.1343 78.6314C60.637 78.0435 60.8947 77.2887 60.8552 76.5201V69.9702C60.9013 69.1935 60.6471 68.4285 60.1441 67.8299C59.8947 67.5677 59.5903 67.3625 59.2522 67.2289C58.9141 67.0952 58.5505 67.0363 58.1869 67.0563H55.2316C55.2209 67.0547 55.21 67.0555 55.1998 67.0588C55.1895 67.0621 55.1802 67.0678 55.1726 67.0753C55.1649 67.0829 55.1592 67.0921 55.1559 67.1022C55.1525 67.1123 55.1516 67.1231 55.1533 67.1337V79.3308C55.1598 79.3856 55.1859 79.4147 55.2381 79.4147Z" fill="#FFE1E1"/>
<path d="M72.7218 79.5372C72.3539 79.2045 72.0638 78.7966 71.8717 78.3418C71.6796 77.8869 71.5901 77.3962 71.6095 76.9038V76.3622C71.6052 76.3344 71.6075 76.306 71.6162 76.2793C71.625 76.2525 71.6399 76.2282 71.6599 76.2081C71.6799 76.1881 71.7043 76.1729 71.7312 76.1639C71.7581 76.1548 71.7868 76.1521 71.815 76.1559H72.4674C72.4955 76.1528 72.5239 76.156 72.5505 76.1652C72.5771 76.1745 72.6012 76.1897 72.6211 76.2096C72.6409 76.2295 72.6558 76.2535 72.6648 76.28C72.6738 76.3064 72.6766 76.3346 72.6729 76.3622V76.8522C72.6588 77.2217 72.7262 77.5898 72.8704 77.931C73.0146 78.2722 73.2321 78.5783 73.508 78.8281C74.1251 79.3531 74.9225 79.6243 75.7359 79.5856C76.5072 79.6286 77.2656 79.3758 77.8529 78.8797C78.2633 78.4626 78.5264 77.9257 78.6028 77.3489C78.6792 76.772 78.5649 76.1863 78.2769 75.6789C78.0087 75.2709 77.6604 74.9202 77.2527 74.6474C76.641 74.2362 76.0048 73.8616 75.3477 73.5257C74.6491 73.1611 73.9728 72.7564 73.322 72.3137C72.867 71.9909 72.4812 71.5823 72.1869 71.1114C71.8811 70.5801 71.7308 69.9752 71.7531 69.3643C71.7268 68.8962 71.8049 68.4281 71.9819 67.993C72.1589 67.558 72.4304 67.1668 72.7773 66.8469C73.5453 66.2102 74.5293 65.8853 75.5304 65.9379C76.783 65.9379 77.7735 66.2753 78.502 66.95C78.8682 67.2936 79.1555 67.7107 79.3446 68.1734C79.5337 68.636 79.6201 69.1334 79.598 69.6319V70.1186C79.6019 70.1464 79.5992 70.1748 79.59 70.2014C79.5808 70.228 79.5655 70.2522 79.5452 70.2719C79.5249 70.2916 79.5003 70.3064 79.4732 70.315C79.4461 70.3237 79.4174 70.3259 79.3893 70.3217H78.7108C78.6826 70.3259 78.6539 70.3237 78.6268 70.315C78.5998 70.3064 78.5751 70.2916 78.5548 70.2719C78.5345 70.2522 78.5192 70.228 78.51 70.2014C78.5009 70.1748 78.4981 70.1464 78.502 70.1186V69.6705C78.5182 69.2979 78.4545 68.926 78.3151 68.5794C78.1757 68.2328 77.9637 67.9192 77.693 67.6592C77.0937 67.1328 76.3082 66.8617 75.5075 66.9049C74.796 66.8667 74.0964 67.0971 73.5504 67.5496C73.1703 67.9612 72.9284 68.4789 72.8577 69.0317C72.787 69.5846 72.8911 70.1455 73.1557 70.6375C73.3968 71.005 73.7135 71.318 74.0853 71.5562C74.4931 71.8302 75.1129 72.2009 75.9544 72.6393C76.6965 73.0297 77.4163 73.4602 78.1106 73.9286C78.5914 74.2634 78.9987 74.6911 79.3077 75.1857C79.6018 75.7048 79.7484 76.2929 79.7318 76.8876C79.7534 77.3809 79.6676 77.873 79.4802 78.3306C79.2928 78.7883 79.0082 79.2009 78.6455 79.5405C77.9257 80.2088 76.9526 80.5418 75.7261 80.5397C74.4996 80.5376 73.4982 80.2034 72.7218 79.5372Z" fill="#FFE1E1"/>
<path d="M96.7946 66.299V66.8502C96.7983 66.8782 96.7955 66.9067 96.7863 66.9334C96.7772 66.9601 96.7619 66.9844 96.7417 67.0043C96.7215 67.0243 96.697 67.0394 96.6699 67.0484C96.6429 67.0575 96.6141 67.0602 96.5858 67.0565H93.1608C93.1053 67.0565 93.076 67.0823 93.076 67.1339V80.1692C93.0797 80.1967 93.077 80.2247 93.068 80.2511C93.059 80.2774 93.044 80.3013 93.0241 80.321C93.0042 80.3406 92.98 80.3555 92.9533 80.3644C92.9267 80.3733 92.8983 80.3759 92.8705 80.3722H92.1887C92.1608 80.3759 92.1325 80.3733 92.1058 80.3644C92.0792 80.3555 92.055 80.3406 92.0351 80.321C92.0152 80.3013 92.0001 80.2774 91.9912 80.2511C91.9822 80.2247 91.9794 80.1967 91.9832 80.1692V67.1339C91.9832 67.0823 91.9571 67.0565 91.9017 67.0565H88.6593C88.6311 67.0604 88.6024 67.0577 88.5755 67.0486C88.5485 67.0395 88.5241 67.0244 88.5041 67.0044C88.4842 66.9843 88.4692 66.9599 88.4605 66.9332C88.4518 66.9064 88.4495 66.878 88.4538 66.8502V66.299C88.45 66.2715 88.4527 66.2435 88.4617 66.2171C88.4707 66.1908 88.4858 66.1669 88.5056 66.1472C88.5255 66.1276 88.5497 66.1127 88.5764 66.1038C88.6031 66.0949 88.6314 66.0923 88.6593 66.096H96.5858C96.6139 66.0917 96.6427 66.094 96.6697 66.1026C96.6968 66.1112 96.7215 66.126 96.7418 66.1457C96.762 66.1655 96.7774 66.1896 96.7865 66.2162C96.7957 66.2428 96.7985 66.2712 96.7946 66.299Z" fill="#FFE1E1"/>
<path d="M106.536 79.4242C106.159 79.0362 105.866 78.5768 105.674 78.0738C105.482 77.5707 105.396 77.0344 105.42 76.4974V69.9701C105.406 69.2386 105.58 68.5156 105.926 67.8684C106.255 67.2667 106.753 66.7719 107.361 66.4437C108.013 66.094 108.746 65.9174 109.488 65.9312C110.239 65.9171 110.981 66.0935 111.644 66.4437C112.257 66.7713 112.762 67.2657 113.099 67.8684C113.451 68.5134 113.63 69.2372 113.617 69.9701V76.4974C113.632 77.2367 113.453 77.9671 113.099 78.6183C112.764 79.2214 112.258 79.7144 111.644 80.0366C110.979 80.3797 110.237 80.5515 109.488 80.5362C108.945 80.5606 108.402 80.4745 107.895 80.2832C107.387 80.0919 106.924 79.7995 106.536 79.4242ZM111.686 78.7408C111.967 78.4518 112.186 78.1094 112.33 77.7343C112.473 77.3592 112.539 76.9592 112.521 76.5586V69.9507C112.539 69.5452 112.474 69.1403 112.331 68.7599C112.187 68.3796 111.968 68.0315 111.686 67.7363C111.399 67.4529 111.055 67.2316 110.676 67.0862C110.298 66.9409 109.893 66.8747 109.488 66.8918C109.088 66.8743 108.689 66.9405 108.317 67.086C107.944 67.2316 107.608 67.4532 107.328 67.7363C106.771 68.3388 106.479 69.1354 106.516 69.9507V76.5586C106.499 76.9581 106.563 77.357 106.704 77.7318C106.845 78.1066 107.061 78.4497 107.338 78.7408C107.618 79.0196 107.954 79.238 108.324 79.3822C108.694 79.5265 109.09 79.5934 109.488 79.5789C109.893 79.5957 110.297 79.5299 110.675 79.3858C111.053 79.2416 111.397 79.0221 111.686 78.7408Z" fill="#FFE1E1"/>
<path d="M131.571 66.0959H132.253C132.281 66.0916 132.31 66.0939 132.337 66.1025C132.364 66.1112 132.389 66.1259 132.409 66.1457C132.429 66.1654 132.445 66.1895 132.454 66.2161C132.463 66.2428 132.466 66.2711 132.462 66.299V80.1594C132.466 80.1873 132.463 80.2156 132.454 80.2423C132.445 80.2689 132.429 80.293 132.409 80.3127C132.389 80.3325 132.364 80.3472 132.337 80.3559C132.31 80.3645 132.281 80.3668 132.253 80.3625H131.516C131.465 80.3684 131.413 80.3578 131.369 80.3322C131.325 80.3066 131.291 80.2674 131.271 80.2207L125.344 68.5102C125.315 68.4876 125.295 68.4747 125.272 68.4812C125.25 68.4876 125.24 68.5102 125.24 68.5553V80.1594C125.244 80.1868 125.242 80.2148 125.233 80.2412C125.225 80.2675 125.21 80.2915 125.19 80.3113C125.171 80.331 125.147 80.3459 125.12 80.3548C125.094 80.3637 125.065 80.3664 125.038 80.3625H124.339C124.312 80.3662 124.283 80.3635 124.257 80.3546C124.23 80.3458 124.206 80.3309 124.186 80.3113C124.166 80.2916 124.151 80.2677 124.142 80.2413C124.133 80.215 124.13 80.187 124.134 80.1594V66.299C124.13 66.2714 124.133 66.2434 124.142 66.2171C124.151 66.1907 124.166 66.1668 124.186 66.1471C124.206 66.1275 124.23 66.1126 124.257 66.1038C124.283 66.0949 124.312 66.0922 124.339 66.0959H125.083C125.134 66.0903 125.186 66.101 125.231 66.1266C125.275 66.1521 125.311 66.191 125.331 66.2377L131.258 77.9063C131.265 77.9171 131.276 77.9257 131.288 77.9308C131.3 77.936 131.314 77.9375 131.327 77.9353C131.349 77.9353 131.359 77.9063 131.359 77.8644V66.299C131.355 66.2708 131.358 66.2421 131.367 66.2152C131.377 66.1883 131.392 66.164 131.413 66.1442C131.434 66.1244 131.459 66.1097 131.486 66.1013C131.514 66.0929 131.543 66.0911 131.571 66.0959Z" fill="#FFE1E1"/>
<path d="M150.789 67.0559H144.455C144.399 67.0559 144.373 67.0817 144.373 67.1333V72.6613C144.373 72.7161 144.399 72.7451 144.455 72.7451H148.803C148.831 72.7414 148.859 72.7441 148.886 72.753C148.912 72.7619 148.937 72.7767 148.956 72.7964C148.976 72.816 148.991 72.8399 149 72.8663C149.009 72.8926 149.012 72.9206 149.008 72.9482V73.4994C149.012 73.5269 149.009 73.555 149 73.5813C148.991 73.6076 148.976 73.6316 148.956 73.6512C148.937 73.6709 148.912 73.6857 148.886 73.6946C148.859 73.7035 148.831 73.7062 148.803 73.7025H144.455C144.444 73.7008 144.432 73.7018 144.422 73.7053C144.411 73.7087 144.401 73.7146 144.393 73.7225C144.385 73.7303 144.379 73.7398 144.376 73.7504C144.372 73.7609 144.371 73.7721 144.373 73.783V79.3304C144.373 79.3852 144.399 79.4142 144.455 79.4142H150.789C150.817 79.41 150.846 79.4122 150.873 79.4209C150.9 79.4295 150.925 79.4443 150.945 79.464C150.966 79.4837 150.981 79.5079 150.99 79.5345C150.999 79.5611 151.002 79.5895 150.998 79.6173V80.1685C151.002 80.1964 150.999 80.2247 150.99 80.2513C150.981 80.278 150.966 80.3021 150.945 80.3218C150.925 80.3415 150.9 80.3563 150.873 80.3649C150.846 80.3736 150.817 80.3759 150.789 80.3716H143.483C143.455 80.3753 143.426 80.3726 143.4 80.3637C143.373 80.3548 143.349 80.34 143.329 80.3203C143.309 80.3007 143.294 80.2767 143.285 80.2504C143.276 80.2241 143.273 80.196 143.277 80.1685V66.3081C143.273 66.2805 143.276 66.2525 143.285 66.2262C143.294 66.1998 143.309 66.1759 143.329 66.1563C143.349 66.1366 143.373 66.1217 143.4 66.1129C143.426 66.104 143.455 66.1013 143.483 66.105H150.789C150.817 66.1007 150.846 66.103 150.873 66.1116C150.9 66.1203 150.925 66.1351 150.945 66.1548C150.966 66.1745 150.981 66.1986 150.99 66.2253C150.999 66.2519 151.002 66.2802 150.998 66.3081V66.8593C151 66.8865 150.996 66.9138 150.986 66.9393C150.976 66.9648 150.961 66.9878 150.941 67.0066C150.921 67.0255 150.897 67.0396 150.871 67.0482C150.845 67.0567 150.817 67.0593 150.789 67.0559Z" fill="#FFE1E1"/>
<path d="M51.0989 24.4144V17.2296C51.1003 13.733 52.4234 10.3631 54.8088 7.78053C57.1942 5.19796 60.4697 3.58903 63.9933 3.26919C66.624 1.78543 69.6018 1.00757 72.6309 1.01284H64.5152C59.8804 1.01284 55.4353 2.83134 52.1568 6.06866C48.8783 9.30597 47.0347 13.6972 47.0312 18.2771V23.3668C47.0312 27.9493 48.8732 32.3442 52.152 35.5848C55.4308 38.8254 59.8779 40.6464 64.5152 40.6472H72.6309C69.6018 40.6525 66.624 39.8747 63.9933 38.3909C60.4669 38.0708 57.1891 36.4596 54.8033 33.8736C52.4175 31.2876 51.0962 27.9137 51.0989 24.4144V24.4144Z" stroke="#FFE1E1" strokeMiterlimit="5"/>
<path d="M55.1462 23.3669V18.2772C55.146 15.2261 55.9646 12.2294 57.5187 9.59292C59.0728 6.9564 61.3067 4.77435 63.9926 3.26929C60.469 3.58913 57.1934 5.19806 54.8081 7.78062C52.4227 10.3632 51.0996 13.7331 51.0981 17.2297V24.4145C51.0988 27.9116 52.4215 31.2823 54.807 33.8656C57.1924 36.4488 60.4685 38.0582 63.9926 38.3781C61.3064 36.8725 59.0724 34.6899 57.5183 32.0528C55.9642 29.4157 55.1457 26.4186 55.1462 23.3669V23.3669Z" stroke="#FFE1E1" strokeMiterlimit="5"/>
<path d="M86.5008 1.00002H78.3721C81.4011 0.995193 84.3788 1.77303 87.0097 3.25637C90.5329 3.57626 93.8081 5.1853 96.193 7.76794C98.5778 10.3506 99.9002 13.7205 99.9008 17.2167V24.4016C99.9003 27.8982 98.578 31.2685 96.1932 33.8516C93.8085 36.4348 90.5332 38.0445 87.0097 38.3652C84.3788 39.8485 81.4011 40.6264 78.3721 40.6215H86.5008C91.1381 40.6207 95.5852 38.7997 98.864 35.5591C102.143 32.3185 103.985 27.9236 103.985 23.3411V18.2772C103.985 13.695 102.143 9.3005 98.8638 6.0604C95.585 2.82029 91.1378 1.00002 86.5008 1.00002V1.00002Z" stroke="#FFE1E1" strokeMiterlimit="5"/>
<path d="M85.7046 38.4426H65.2979C64.8608 38.4426 64.427 38.4169 63.9932 38.3782C66.6239 39.8619 69.6017 40.6398 72.6308 40.6345H78.3718C81.4008 40.6394 84.3784 39.8615 87.0094 38.3782C86.5788 38.4169 86.1449 38.4426 85.7046 38.4426Z" stroke="#FFE1E1" strokeMiterlimit="5"/>
<path d="M65.2976 3.19186H85.7075C86.1479 3.19186 86.5817 3.22087 87.0123 3.25955C84.3814 1.77621 81.4037 0.998371 78.3747 1.0032H72.6337C69.6046 0.997922 66.6268 1.77579 63.9961 3.25955C64.4234 3.23054 64.8572 3.19186 65.2976 3.19186Z" stroke="#FFE1E1" strokeMiterlimit="5"/>
<path d="M59.2151 24.4147V17.2299C59.2138 15.3869 59.58 13.5617 60.2929 11.8586C61.0057 10.1555 62.0512 8.60793 63.3695 7.30428C64.6879 6.00063 66.2532 4.96647 67.9762 4.26089C69.6992 3.55531 71.546 3.19214 73.411 3.19214H65.2986C64.8615 3.19214 64.4277 3.22115 63.9938 3.25983C61.3065 4.7657 59.0717 6.94927 57.5175 9.58764C55.9633 12.226 55.1455 15.2247 55.1475 18.2775V23.3671C55.147 26.4188 55.9655 29.416 57.5196 32.053C59.0737 34.6901 61.3077 36.8727 63.9938 38.3783C64.4244 38.417 64.8582 38.4428 65.2986 38.4428H73.4143C71.5497 38.4436 69.7031 38.0814 67.9802 37.3767C66.2573 36.6721 64.6918 35.6389 63.3732 34.3361C62.0545 33.0334 61.0086 31.4866 60.2951 29.7843C59.5817 28.0819 59.2147 26.2573 59.2151 24.4147Z" stroke="#FFE1E1" strokeMiterlimit="5"/>
<path d="M95.8556 18.2772V23.3669C95.8555 26.4184 95.0367 29.4154 93.4826 32.0523C91.9286 34.6893 89.695 36.872 87.0093 38.3781C90.5328 38.0575 93.8081 36.4477 96.1928 33.8646C98.5776 31.2814 99.8999 27.9111 99.9004 24.4145V17.2297C99.8998 13.7334 98.5774 10.3635 96.1926 7.78086C93.8077 5.19822 90.5325 3.58917 87.0093 3.26929C89.6947 4.77486 91.9283 6.95703 93.4823 9.59343C95.0363 12.2298 95.8552 15.2262 95.8556 18.2772V18.2772Z" stroke="#FFE1E1" strokeMiterlimit="5"/>
<path d="M77.5928 3.19214C79.4576 3.19256 81.304 3.55604 83.0266 4.26181C84.7492 4.96758 86.3142 6.00181 87.6322 7.30542C88.9502 8.60902 89.9953 10.1565 90.708 11.8593C91.4206 13.5622 91.7867 15.3871 91.7854 17.2299V24.4147C91.7859 26.2568 91.4191 28.0808 90.706 29.7828C89.993 31.4847 88.9476 33.0312 87.6297 34.3339C86.3117 35.6365 84.747 36.6699 83.0248 37.3749C81.3027 38.0799 79.4569 38.4428 77.5928 38.4428H85.7052C86.1456 38.4428 86.5794 38.417 87.01 38.3783C89.6957 36.8722 91.9293 34.6895 93.4833 32.0525C95.0373 29.4156 95.8561 26.4186 95.8563 23.3671V18.2775C95.8559 15.2264 95.037 12.23 93.483 9.59364C91.9289 6.95724 89.6954 4.77507 87.01 3.2695C86.5794 3.23082 86.1456 3.20181 85.7052 3.20181L77.5928 3.19214Z" stroke="#FFE1E1" strokeMiterlimit="5"/>
<path d="M77.5921 3.20178H73.4103C65.5701 3.20178 59.2144 9.48236 59.2144 17.2298V24.4147C59.2144 32.1622 65.5701 38.4428 73.4103 38.4428H77.5921C85.4323 38.4428 91.788 32.1622 91.788 24.4147V17.2298C91.788 9.48236 85.4323 3.20178 77.5921 3.20178Z" stroke="#FFE1E1" strokeMiterlimit="5"/>
</svg>
