<svg width="28" height="27" viewBox="0 0 28 27" fill="none" xmlns="http://www.w3.org/2000/svg">
<path d="M0 1.93405C0 0.866692 0.918204 0 2.05067 0H25.6941C26.827 0 27.7448 0.866692 27.7448 1.93405V25.0664C27.7448 26.1341 26.827 27 25.6941 27H2.05067C0.918204 27 0 26.1341 0 25.0668V1.93364V1.93405Z" fill="#FFE1E1"/>
<path d="M8.41155 22.6016V10.4095H4.22079V22.6016H8.41155ZM6.31702 8.74501C7.77805 8.74501 8.68782 7.80897 8.68782 6.63882C8.6604 5.44257 7.77805 4.53223 6.34485 4.53223C4.91166 4.53223 3.97363 5.44257 3.97363 6.63882C3.97363 7.80897 4.88298 8.74501 6.2896 8.74501H6.31702ZM10.7309 22.6016H14.9212V15.7936C14.9212 15.4298 14.9491 15.0652 15.0596 14.805C15.3624 14.0765 16.052 13.3228 17.2106 13.3228C18.7265 13.3228 19.3334 14.4408 19.3334 16.0799V22.6016H23.5238V15.6109C23.5238 11.8664 21.4571 10.1236 18.6995 10.1236C16.4392 10.1236 15.4463 11.3471 14.8947 12.1775H14.9225V10.4099H10.7322C10.787 11.5519 10.7309 22.6016 10.7309 22.6016Z" fill="#1A1534"/>
</svg>
